<?xml version="1.0" encoding="utf-8"?>
<!-- Generator: Adobe Illustrator 17.0.0, SVG Export Plug-In . SVG Version: 6.00 Build 0)  -->
<!DOCTYPE svg PUBLIC "-//W3C//DTD SVG 1.1//EN" "http://www.w3.org/Graphics/SVG/1.1/DTD/svg11.dtd">
<svg version="1.1" id="Warstwa_1" xmlns="http://www.w3.org/2000/svg" xmlns:xlink="http://www.w3.org/1999/xlink" x="0px" y="0px"
	 width="553.75px" height="560px" viewBox="203.75 0 553.75 560" enable-background="new 203.75 0 553.75 560" xml:space="preserve"
	>
<g>
	<g transform="translate(0.000000,512.000000) scale(0.100000,-0.100000)">
		<path fill="#FFFFFF" d="M4593.472,5061.592c-355.152-32.2-679.168-119.112-982.856-266.112
			c-305.816-148.064-501.088-287.56-750.008-537.544c-249.984-249.984-378.784-429.184-531.104-740.376
			c-129.808-262.864-206.024-511.84-254.296-820.848c-25.76-172.76-25.76-578.312,1.064-751.072
			c50.456-328.328,134.12-592.256,273.616-866.936c142.688-277.928,276.808-460.32,510.72-694.232
			c245.728-246.792,428.12-377.664,729.624-525.784c192.08-94.416,317.576-141.624,512.904-193.144
			c813.344-214.592,1669.584-42.896,2357.32,469.952c130.928,98.728,423.808,391.608,522.536,522.536
			c566.496,758.688,712.432,1708.28,399.112,2591.344c-94.416,266.112-271.488,578.312-454.944,804.72
			c-105.168,129.808-341.208,358.4-468.888,453.88C6080.608,4791.224,5656.8,4968.24,5183.6,5041.208
			C5075.24,5057.336,4697.52,5071.28,4593.472,5061.592z M5045.168,4842.744c311.192-31.136,585.872-110.488,873.432-252.168
			c507.528-249.984,897.008-639.52,1148.056-1148.056c186.704-376.656,272.552-771.512,259.672-1196.384
			c-11.816-386.288-90.16-702.8-259.672-1046.136C6740.456,537.968,6148.2,55.136,5430.392-131.568
			c-361.592-94.416-780.08-102.984-1160.992-24.696c-282.184,57.96-630.896,203.84-872.312,365.904
			c-572.992,383.04-959.224,965.664-1088.024,1639.456C2078.4,3049.792,2751.128,4254.744,3894.928,4688.24
			C4256.52,4825.552,4663.192,4880.264,5045.168,4842.744z"/>
		<path fill="#FFFFFF" d="M4877.784,3194.608L4416.4,2868.464h-302.568H3810.2V2208.56v-659.904h306.88h307.944l458.192-327.264
			c252.167-180.264,461.384-327.264,465.696-327.264c3.192,0,6.44,591.248,6.44,1314.376c0,723.184-3.192,1314.376-7.504,1313.312
			C5342.416,3521.872,5132.08,3374.872,4877.784,3194.608z M5129.952,2208.56c0-487.144-3.192-885.192-6.44-885.192
			s-153.44,104.104-332.64,232.848l-326.2,231.728v424.928l1.064,424.928l324.016,227.472
			c178.136,124.488,327.264,227.472,332.64,227.472C5126.704,3093.752,5129.952,2695.704,5129.952,2208.56z M4250.08,2213.936V1774
			h-112.672h-112.672v439.936v439.936h112.672h112.672V2213.936z"/>
		<path fill="#FFFFFF" d="M5679.312,2596.976l-77.28-78.344l156.688-154.504l156.632-155.568L5757.6,2055.12l-157.752-154.504
			l72.968-74.032c40.768-40.768,78.344-74.032,84.784-74.032c6.44,0,78.344,67.592,160.944,150.192l150.192,150.192l152.376-152.376
			l153.44-153.44l77.28,78.344l78.344,77.224l-153.44,153.44L6224.36,2208.56l155.568,155.568l155.568,155.568l-80.472,80.472
			l-80.472,80.472l-155.512-155.568l-155.568-155.568l-153.44,153.44l-152.376,152.376L5679.312,2596.976z"/>
	</g>
</g>
</svg>
