<?xml version="1.0" encoding="utf-8"?>
<!-- Generator: Adobe Illustrator 17.0.0, SVG Export Plug-In . SVG Version: 6.00 Build 0)  -->
<!DOCTYPE svg PUBLIC "-//W3C//DTD SVG 1.1//EN" "http://www.w3.org/Graphics/SVG/1.1/DTD/svg11.dtd">
<svg version="1.1" id="Warstwa_1" xmlns="http://www.w3.org/2000/svg" xmlns:xlink="http://www.w3.org/1999/xlink" x="0px" y="0px"
	 width="553.75px" height="560px" viewBox="203.75 0 553.75 560" enable-background="new 203.75 0 553.75 560" xml:space="preserve"
	>
<path fill="#FFFFFF" d="M459.347,5.841c-35.515,3.22-67.917,11.911-98.286,26.611c-30.582,14.806-50.109,28.756-75.001,53.754
	c-24.998,24.998-37.878,42.918-53.11,74.038c-12.981,26.286-20.602,51.184-25.43,82.085c-2.576,17.276-2.576,57.831,0.106,75.107
	c5.046,32.833,13.412,59.226,27.362,86.694c14.269,27.793,27.681,46.032,51.072,69.423c24.573,24.679,42.812,37.766,72.962,52.578
	c19.208,9.442,31.758,14.162,51.29,19.314c81.334,21.459,166.958,4.29,235.732-46.995c13.093-9.873,42.381-39.161,52.254-52.254
	c56.65-75.869,71.243-170.828,39.911-259.134c-9.442-26.611-27.149-57.831-45.494-80.472c-10.517-12.981-34.121-35.84-46.889-45.388
	C608.061,32.878,565.68,15.176,518.36,7.879C507.524,6.266,469.752,4.872,459.347,5.841z M504.517,27.726
	c31.119,3.114,58.587,11.049,87.343,25.217c50.753,24.998,89.701,63.952,114.806,114.806c18.67,37.666,27.255,77.151,25.967,119.638
	c-1.182,38.629-9.016,70.28-25.967,104.614c-32.62,66.203-91.846,114.486-163.626,133.157c-36.159,9.442-78.008,10.298-116.099,2.47
	c-28.218-5.796-63.09-20.384-87.231-36.59c-57.299-38.304-95.922-96.566-108.802-163.946
	C207.84,207.021,275.113,86.526,389.493,43.176C425.652,29.445,466.319,23.974,504.517,27.726z"/>
<path fill="#FFFFFF" d="M487.778,192.539l-46.138,32.614h-30.257H381.02v65.99v65.99h30.688h30.794l45.819,32.726
	c25.217,18.026,46.138,32.726,46.57,32.726c0.319,0,0.644-59.125,0.644-131.438c0-72.318-0.319-131.438-0.75-131.331
	C534.242,159.813,513.208,174.513,487.778,192.539z M512.995,291.144c0,48.714-0.319,88.519-0.644,88.519
	c-0.325,0-15.344-10.41-33.264-23.285l-32.62-23.173v-42.493l0.106-42.493l32.402-22.747c17.814-12.449,32.726-22.747,33.264-22.747
	C512.67,202.625,512.995,242.43,512.995,291.144z M425.008,290.606V334.6h-11.267h-11.267v-43.994v-43.994h11.267h11.267V290.606z"
	/>
</svg>
